<svg height="512" viewBox="0 0 52 58" width="512" xmlns="http://www.w3.org/2000/svg"><g id="Page-1" fill="none" fill-rule="evenodd"><g id="001---Football" transform="translate(-1)"><path id="Path" d="m38.86 49.14c1.97.92 3.14 2.09 3.14 3.36 0 3.04-6.72 5.5-15 5.5s-15-2.46-15-5.5c0-1.27 1.17-2.44 3.14-3.36z" fill="#24ae5f"/><circle id="Oval" cx="27" cy="26" fill="#ecf0f1" r="26"/><path id="Path" d="m53 26c0 .15 0 .3-.01.44-.2487234 14.1761416-11.8116766 25.538-25.99 25.538s-25.74127662-11.3618584-25.99-25.538c0 .15.01.3.02.44l.55-.42c2.69191822 12.5346354 14.1189572 21.2360914 26.9181023 20.4975833 12.799145-.7385082 23.1495365-10.6965177 24.3818977-23.4575833.04.41.07.82.09 1.24s.03.84.03 1.26z" fill="#bdc3c7"/><path id="Rectangle" d="m11.339 36h14.511v2h-14.511z" fill="#bdc3c7" transform="matrix(.607 -.794 .794 .607 -22.093 29.298)"/><path id="Rectangle" d="m12.403 13.542h2v15.838h-2z" fill="#bdc3c7" transform="matrix(.282 -.959 .959 .282 -10.969 28.261)"/><path id="Rectangle" d="m34.405 29.744h2v14.511h-2z" fill="#bdc3c7" transform="matrix(.795 -.607 .607 .795 -15.193 29.103)"/><path id="Rectangle" d="m33.719 20.462h13.753v2h-13.753z" fill="#bdc3c7" transform="matrix(.959 -.282 .282 .959 -4.406 12.328)"/><path id="Rectangle" d="m26 4.4h2v14.6h-2z" fill="#bdc3c7"/><g fill="#464f5d"><path id="Path" d="m35.88 1.56-8.305 5.84c-.3449934.24246212-.8050066.24246212-1.15 0l-8.305-5.84c5.7372996-2.07998694 12.0227004-2.07998694 17.76 0z"/><path id="Path" d="m19.9 51.01c-1.6460061-.460211-3.2408928-1.0867736-4.76-1.87-4.099889-2.0996636-7.56564235-5.2547418-10.04-9.14h10.475c.4323067.0001772.8155526.2781314.95.689z"/><path id="Path" d="m1.58 26.46-.55.42c-.01-.14-.02-.29-.02-.44s-.01-.29-.01-.44c0-.42.01-.84.03-1.26s.05-.83.09-1.24c.09646753.9946685.25005439 1.9829666.46 2.96z"/><path id="Path" d="m9.14 20.79-7.56 5.67c-.20994561-.9770334-.36353247-1.9653315-.46-2.96.4634332-4.9163098 2.33099119-9.5956187 5.38-13.48l2.99 9.68c.12527827.4007885-.01481142.8370678-.35 1.09z"/><path id="Path" d="m36.657 23.265-3.32 10.049c-.1354932.4096828-.518493.686249-.95.686h-10.774c-.431507.000249-.8145068-.2763172-.95-.686l-3.32-10.049c-.1384737-.4185218.0134485-.8783505.374-1.132l8.707-6.128c.3454298-.2434004.8065702-.2434004 1.152 0l8.707 6.128c.3605515.2536495.5124737.7134782.374 1.132z"/><path id="Path" d="m53 26c.00516.2936542-.0048533.587379-.03.88l-8.107-6.087c-.3376082-.2534725-.4796681-.6916572-.355-1.095l2.992-9.678c3.5720829 4.559928 5.5089943 10.187536 5.5 15.98z"/><path id="Path" d="m48.9 40c-2.4743576 3.8852582-5.940111 7.0403364-10.04 9.14-1.5191072.7832264-3.1139939 1.409789-4.76 1.87l3.375-10.321c.1344474-.4108686.5176933-.6888228.95-.689z"/></g><path id="Path" d="m19.9 51.01c-1.6460061-.460211-3.2408928-1.0867736-4.76-1.87-4.1036266-2.0942649-7.57066733-5.2505151-10.04-9.14h4.17c2.5427351 2.3825911 5.5388531 4.2292336 8.81 5.43z" fill="#393f4a"/><path id="Path" d="m48.9 40c-2.4693327 3.8894849-5.9363734 7.0457351-10.04 9.14-1.5191072.7832264-3.1139939 1.409789-4.76 1.87l1.82-5.58c3.2711469-1.2007664 6.2672649-3.0474089 8.81-5.43z" fill="#393f4a"/></g></g></svg>