<svg id="Capa_1" enable-background="new 0 0 511.999 511.999" height="512" viewBox="0 0 511.999 511.999" width="512" xmlns="http://www.w3.org/2000/svg"><g><g><path d="m256 117.604c-4.268 0-7.726-3.459-7.726-7.726v-52.032c0-4.268 3.459-7.726 7.726-7.726 4.268 0 7.726 3.459 7.726 7.726v52.032c0 4.268-3.459 7.726-7.726 7.726z" fill="#434343"/></g><g><path d="m273.691 147.502h-35.382v-27.322c0-5.69 4.612-10.302 10.302-10.302h14.778c5.69 0 10.302 4.612 10.302 10.302z" fill="#595959"/></g><path d="m510.63 382.177-47.382-231.727c-3.962-19.374-21.007-33.287-40.782-33.287h-50.954c-13.671 0-26.471 6.713-34.244 17.96l-8.558 12.383h-145.42l-8.558-12.383c-7.773-11.247-20.572-17.96-34.244-17.96h-50.955c-19.775 0-36.821 13.913-40.782 33.287l-47.382 231.727c-8.417 41.167 23.037 79.703 65.055 79.703 31.506 0 58.674-22.14 65.034-52.997l18.813-91.277h211.456l18.813 91.277c6.36 30.857 33.528 52.997 65.034 52.997 42.019 0 73.473-38.536 65.056-79.703z" fill="#9b9b9b"/><path d="m510.63 382.177-47.382-231.727c-3.962-19.374-21.007-33.287-40.782-33.287h-26.016c19.775 0 36.821 13.913 40.782 33.287l47.382 231.726c7.521 36.782-16.798 71.439-52.032 78.41 4.216.84 8.559 1.293 12.993 1.293 42.018.001 73.472-38.535 65.055-79.702z" fill="#818181"/><path d="m105.443 408.883c-5.465 26.515-26.298 46.578-52.041 51.704 4.201.831 8.547 1.293 13.023 1.293 31.506 0 58.674-22.14 65.034-52.997l18.813-91.277h-9.055c-9.875 0-18.391 6.94-20.385 16.612z" fill="#818181"/><circle cx="189.92" cy="317.605" fill="#595959" r="39.648"/><path d="m207.722 282.182c2.696 5.355 4.224 11.398 4.224 17.803 0 21.897-17.751 39.648-39.648 39.648-6.404 0-12.448-1.528-17.803-4.224 6.523 12.954 19.931 21.845 35.424 21.845 21.897 0 39.648-17.751 39.648-39.648.001-15.493-8.891-28.901-21.845-35.424z" fill="#434343"/><circle cx="322.08" cy="317.605" fill="#595959" r="39.648"/><path d="m339.882 282.182c2.696 5.355 4.224 11.398 4.224 17.803 0 21.897-17.751 39.648-39.648 39.648-6.404 0-12.448-1.528-17.803-4.224 6.523 12.954 19.931 21.845 35.424 21.845 21.897 0 39.648-17.751 39.648-39.648 0-15.493-8.891-28.901-21.845-35.424z" fill="#434343"/><path d="m83.765 190.952h18.475c3.414 0 6.181-2.767 6.181-6.181v-18.475c0-3.414 2.767-6.181 6.181-6.181h20.678c3.414 0 6.181 2.767 6.181 6.181v18.475c0 3.414 2.767 6.181 6.181 6.181h18.475c3.414 0 6.181 2.767 6.181 6.181v20.678c0 3.414-2.767 6.181-6.181 6.181h-18.475c-3.414 0-6.181 2.767-6.181 6.181v18.475c0 3.414-2.767 6.181-6.181 6.181h-20.678c-3.414 0-6.181-2.767-6.181-6.181v-18.475c0-3.414-2.767-6.181-6.181-6.181h-18.475c-3.414 0-6.181-2.767-6.181-6.181v-20.678c0-3.413 2.767-6.181 6.181-6.181z" fill="#fce25c"/><g><path d="m270.632 259.547h-29.264c-3.414 0-6.181-2.767-6.181-6.181v-14.695c0-3.414 2.767-6.181 6.181-6.181h29.264c3.414 0 6.181 2.767 6.181 6.181v14.695c0 3.414-2.768 6.181-6.181 6.181z" fill="#fb636f"/></g><circle cx="387.058" cy="176.635" fill="#fb636f" r="16.52"/><circle cx="387.058" cy="238.31" fill="#fce25c" r="16.52"/><circle cx="417.895" cy="207.472" fill="#7fd061" r="16.52"/><circle cx="356.221" cy="207.472" fill="#b9e4ef" r="16.52"/><g fill="#818181"><path d="m297.708 182.589c1.273.795 2.686 1.173 4.083 1.173 2.577 0 5.097-1.29 6.561-3.637l20.355-32.619h-18.214l-15.25 24.438c-2.258 3.621-1.155 8.386 2.465 10.645z"/><path d="m214.292 182.589c-1.273.795-2.686 1.173-4.083 1.173-2.577 0-5.097-1.29-6.561-3.637l-20.355-32.619h18.214l15.25 24.438c2.258 3.621 1.154 8.386-2.465 10.645z"/></g></g></svg>